<svg xmlns="http://www.w3.org/2000/svg" version="1.1" xmlns:xlink="http://www.w3.org/1999/xlink" width="200" height="200"><svg xmlns="http://www.w3.org/2000/svg" version="1.1" xmlns:xlink="http://www.w3.org/1999/xlink" width="200" height="200"><svg xmlns="http://www.w3.org/2000/svg" version="1.1" xmlns:xlink="http://www.w3.org/1999/xlink" viewBox="0 0 200 200"><rect width="200" height="200" fill="url('#gradient')"></rect><defs><linearGradient id="gradient" gradientTransform="rotate(45 0.5 0.5)"><stop offset="0%" stop-color="#305eb6"></stop><stop offset="100%" stop-color="#b9b6c5"></stop></linearGradient></defs><g><g fill="#f9eff1" transform="matrix(2.8274275195582144,0,0,2.8274275195582144,9.038805266198509,109.47149139124295)" stroke="#010102" stroke-width="0.65"><path d="M6.46-2.97L6.46-2.97Q6.46-3.39 6.02-3.64Q5.58-3.90 4.35-4.17Q3.12-4.44 2.31-4.89Q1.51-5.33 1.09-5.97Q0.67-6.60 0.67-7.42L0.67-7.42Q0.67-8.88 1.88-9.82Q3.08-10.76 5.02-10.76L5.02-10.76Q7.11-10.76 8.38-9.81Q9.65-8.87 9.65-7.32L9.65-7.32L6.35-7.32Q6.35-8.59 5.01-8.59L5.01-8.59Q4.49-8.59 4.14-8.31Q3.79-8.02 3.79-7.59L3.79-7.59Q3.79-7.15 4.22-6.88Q4.65-6.60 5.59-6.43Q6.53-6.25 7.25-6.01L7.25-6.01Q9.63-5.19 9.63-3.07L9.63-3.07Q9.63-1.62 8.34-0.71Q7.06 0.20 5.02 0.20L5.02 0.20Q3.66 0.20 2.60-0.29Q1.53-0.78 0.94-1.62Q0.34-2.46 0.34-3.39L0.34-3.39L3.42-3.39Q3.44-2.66 3.91-2.32Q4.38-1.98 5.11-1.98L5.11-1.98Q5.78-1.98 6.12-2.26Q6.46-2.53 6.46-2.97ZM15.63-2.34L15.63-2.34Q16.33-2.34 16.71-2.72Q17.09-3.10 17.08-3.77L17.08-3.77L20.17-3.77Q20.17-2.03 18.92-0.92Q17.68 0.20 15.71 0.20L15.71 0.20Q13.41 0.20 12.08-1.25Q10.75-2.70 10.75-5.25L10.75-5.25L10.75-5.39Q10.75-6.99 11.34-8.22Q11.93-9.44 13.05-10.10Q14.16-10.76 15.68-10.76L15.68-10.76Q17.74-10.76 18.96-9.62Q20.17-8.48 20.17-6.52L20.17-6.52L17.08-6.52Q17.08-7.34 16.68-7.78Q16.28-8.22 15.61-8.22L15.61-8.22Q14.33-8.22 14.11-6.59L14.11-6.59Q14.04-6.07 14.04-5.17L14.04-5.17Q14.04-3.57 14.42-2.96Q14.80-2.34 15.63-2.34ZM21.15-4.82L21.14-5.38Q21.14-6.96 21.76-8.20Q22.37-9.43 23.53-10.10Q24.68-10.76 26.23-10.76L26.23-10.76Q28.60-10.76 29.97-9.29Q31.34-7.82 31.34-5.29L31.34-5.29L31.34-5.18Q31.34-2.71 29.97-1.25Q28.59 0.20 26.25 0.20L26.25 0.20Q23.99 0.20 22.63-1.16Q21.26-2.51 21.15-4.82L21.15-4.82ZM24.44-5.77L24.43-5.18Q24.43-3.71 24.89-3.03Q25.35-2.34 26.25-2.34L26.25-2.34Q28.01-2.34 28.05-5.05L28.05-5.05L28.05-5.38Q28.05-8.22 26.23-8.22L26.23-8.22Q24.58-8.22 24.44-5.77L24.44-5.77ZM32.38-4.82L32.37-5.38Q32.37-6.96 32.99-8.20Q33.60-9.43 34.76-10.10Q35.91-10.76 37.46-10.76L37.46-10.76Q39.83-10.76 41.20-9.29Q42.57-7.82 42.57-5.29L42.57-5.29L42.57-5.18Q42.57-2.71 41.20-1.25Q39.82 0.20 37.48 0.20L37.48 0.20Q35.22 0.20 33.86-1.16Q32.49-2.51 32.38-4.82L32.38-4.82ZM35.67-5.77L35.66-5.18Q35.66-3.71 36.12-3.03Q36.58-2.34 37.48-2.34L37.48-2.34Q39.24-2.34 39.28-5.05L39.28-5.05L39.28-5.38Q39.28-8.22 37.46-8.22L37.46-8.22Q35.81-8.22 35.67-5.77L35.67-5.77ZM53.83-5.36L53.83-5.21Q53.83-2.74 52.72-1.27Q51.61 0.20 49.73 0.20L49.73 0.20Q48.27 0.20 47.33-0.87L47.33-0.87L47.33 4.06L44.04 4.06L44.04-10.57L47.12-10.57L47.22-9.59Q48.16-10.76 49.71-10.76L49.71-10.76Q51.66-10.76 52.74-9.32Q53.83-7.88 53.83-5.36L53.83-5.36ZM50.54-5.06L50.54-5.41Q50.54-8.22 48.90-8.22L48.90-8.22Q47.72-8.22 47.33-7.38L47.33-7.38L47.33-3.22Q47.76-2.34 48.92-2.34L48.92-2.34Q50.49-2.34 50.54-5.06L50.54-5.06ZM60.81-2.97L60.81-2.97Q60.81-3.39 60.37-3.64Q59.93-3.90 58.70-4.17Q57.47-4.44 56.67-4.89Q55.87-5.33 55.45-5.97Q55.03-6.60 55.03-7.42L55.03-7.42Q55.03-8.88 56.23-9.82Q57.43-10.76 59.38-10.76L59.38-10.76Q61.46-10.76 62.73-9.81Q64.00-8.87 64.00-7.32L64.00-7.32L60.70-7.32Q60.70-8.59 59.37-8.59L59.37-8.59Q58.85-8.59 58.50-8.31Q58.14-8.02 58.14-7.59L58.14-7.59Q58.14-7.15 58.57-6.88Q59.00-6.60 59.95-6.43Q60.89-6.25 61.60-6.01L61.60-6.01Q63.98-5.19 63.98-3.07L63.98-3.07Q63.98-1.62 62.70-0.71Q61.42 0.20 59.38 0.20L59.38 0.20Q58.02 0.20 56.95-0.29Q55.89-0.78 55.29-1.62Q54.70-2.46 54.70-3.39L54.70-3.39L57.77-3.39Q57.79-2.66 58.26-2.32Q58.73-1.98 59.46-1.98L59.46-1.98Q60.14-1.98 60.47-2.26Q60.81-2.53 60.81-2.97Z"></path></g></g></svg></svg><style>@media (prefers-color-scheme: light) { :root { filter: none; } }
@media (prefers-color-scheme: dark) { :root { filter: none; } }
</style></svg>